<svg xmlns="http://www.w3.org/2000/svg" xmlns:xlink="http://www.w3.org/1999/xlink" fill="#F38F19" version="1.1" x="0px" y="0px" viewBox="0 0 100 100" style="enable-background:new 0 0 100 100;" xml:space="preserve"><path d="M95.8,25.4c0,0-3.1-14.8-16.5-20c-6.3-2.4-17.8-3.6-29.1-3.7C38.8,1.8,27.3,2.9,21,5.4c-13.4,5.2-16.5,20-16.5,20  c-2,8.4-2.7,16.9-2.6,24.4c-0.1,7.5,0.5,16.1,2.6,24.4c0,0,3.1,14.8,16.5,20c6.3,2.4,17.8,3.6,29.1,3.7c11.3-0.1,22.8-1.2,29.1-3.7  c13.4-5.2,16.5-20,16.5-20c2-8.4,2.7-16.9,2.6-24.4C98.4,42.3,97.8,33.8,95.8,25.4z M36.3,59.3L23.6,49l12.8-9.3l3,4.2l-7.4,5.3  l7.5,6L36.3,59.3z M47.3,66.2l-4.9-1.7l10.9-31.5l4.9,1.7L47.3,66.2z M63.7,59.3l-3.3-4l7.5-6l-7.4-5.3l3-4.2L76.4,49L63.7,59.3z"/></svg>
